<svg width="691" height="349" viewBox="0 0 691 349" fill="none" xmlns="http://www.w3.org/2000/svg">
<g clip-path="url(#clip0)">
<path d="M151.67 194.699C151.676 193.628 151.495 192.567 151.138 191.582C150.781 190.597 150.256 189.709 149.595 188.974C148.934 188.24 148.151 187.673 147.296 187.311C146.441 186.949 145.532 186.798 144.626 186.869C143.719 186.94 142.835 187.23 142.028 187.722C141.221 188.213 140.508 188.896 139.935 189.727C139.361 190.558 138.939 191.519 138.695 192.551C138.451 193.583 138.39 194.663 138.516 195.724L119.528 225.043C118.718 226.954 118.403 229.104 118.625 231.225C118.846 233.345 119.593 235.341 120.772 236.963L122.262 239.012L129.096 237.4L136.842 229.341L135.93 220.208L145.499 202.479L145.486 202.466C147.161 202.341 148.732 201.468 149.881 200.025C151.03 198.582 151.669 196.678 151.67 194.699Z" fill="#FFB9B9"/>
<path d="M20.3617 338.04L17.2621 324.466L60.1881 303.912L64.7626 323.945L20.3617 338.04Z" fill="#FFB8B8"/>
<path d="M9.99346 345.045L0 301.278L0.469469 301.129C4.30102 299.913 8.38538 300.541 11.8242 302.875C15.263 305.21 17.7746 309.059 18.8065 313.577L18.8068 313.578L24.9103 340.309L9.99346 345.045Z" fill="#2F2E41"/>
<path d="M79.4903 335.871L69.8493 327.604L92.3053 279.82L106.535 292.022L79.4903 335.871Z" fill="#FFB8B8"/>
<path d="M75.1531 349L44.0653 322.342L44.3513 321.879C46.6851 318.095 50.1981 315.559 54.1174 314.829C58.0368 314.099 62.0416 315.235 65.2509 317.986L65.2517 317.987L84.239 334.269L75.1531 349Z" fill="#2F2E41"/>
<path d="M161.445 269.097L137.184 241.307C135.066 238.881 132.277 237.439 129.33 237.245C126.383 237.051 123.475 238.118 121.141 240.25L75.3319 300.258L79.4326 307.779L123.173 272.858L152.788 318.524L181.037 301.869L161.445 269.097Z" fill="#2F2E41"/>
<path d="M150.966 275.007L133.197 273.395L120.328 269.717C119.601 268.38 118.545 267.336 117.301 266.726C116.058 266.116 114.686 265.969 113.369 266.304C112.052 266.638 110.854 267.44 109.934 268.6C109.014 269.76 108.417 271.224 108.222 272.795C108.027 274.367 108.244 275.971 108.844 277.393C109.444 278.815 110.398 279.987 111.578 280.753C112.758 281.518 114.109 281.84 115.448 281.675C116.788 281.51 118.053 280.867 119.074 279.831L119.072 279.842L126.818 283.603L160.078 297.034L164.179 293.273L150.966 275.007Z" fill="#FFB9B9"/>
<path d="M193.795 333.03L183.771 340.551H171.924L116.794 316.375L36.1481 333.567L33.87 313.151L107.682 275.007L172.381 300.258L193.795 333.03Z" fill="#2F2E41"/>
<path d="M172.38 202.479C182.194 202.479 190.15 193.098 190.15 181.526C190.15 169.955 182.194 160.574 172.38 160.574C162.567 160.574 154.611 169.955 154.611 181.526C154.611 193.098 162.567 202.479 172.38 202.479Z" fill="#FFB9B9"/>
<path d="M218.358 265.181C218.357 277.826 216.668 290.392 213.35 302.417L212.02 307.242L205.641 341.625L198.807 343.774L193.795 336.253L183.771 327.657L176.481 313.689L170.23 301.407L168.28 297.571L161.445 257.278L135.475 240.086L126.818 238.474L128.64 232.565L136.386 220.208L144.132 219.134L146.41 216.985L148.232 218.059L158.279 222.623L190.852 206.396L195.617 207.314L212.02 223.432C216.213 236.795 218.359 250.932 218.358 265.181Z" fill="#CCCCCC"/>
<path opacity="0.1" d="M213.386 260.502L196.073 273.932L170.23 301.407L168.28 297.571L162.812 265.337H164.179L178.304 234.714L213.386 260.502Z" fill="black"/>
<path d="M178.304 231.49L164.179 262.113L155.978 272.858L148.688 275.007L168.28 300.257L196.073 270.709L213.386 257.278L178.304 231.49Z" fill="#CCCCCC"/>
<path d="M158.559 165.947L156.634 166.821C156.342 166.587 156.092 166.288 155.897 165.941C155.703 165.594 155.569 165.204 155.502 164.796C155.435 164.387 155.437 163.967 155.508 163.559C155.579 163.152 155.718 162.764 155.916 162.42C155.926 162.402 155.936 162.384 155.947 162.366L152.389 162.17C154.673 158.583 157.577 155.609 160.909 153.445C164.24 151.28 167.923 149.974 171.715 149.614C175.506 149.254 179.32 149.847 182.902 151.354C186.485 152.862 189.755 155.249 192.497 158.358C192.659 157.7 194.424 158.98 195.145 160.278C195.388 159.207 197.043 164.382 197.629 168.039C197.9 166.822 198.942 168.788 198.029 170.674C198.608 170.574 198.869 172.32 198.421 173.293C199.054 172.942 198.948 175.026 198.261 176.418C199.164 176.324 198.184 198.262 184.628 196.663C183.684 191.55 183.95 191.868 182.839 185.293C182.322 184.646 181.755 184.056 181.19 183.468L178.131 180.284C174.575 176.583 171.339 172.014 166.601 170.63C163.345 169.679 161.287 169.465 163.061 165.138C161.458 165.927 159.961 167.1 158.343 167.833C158.365 167.229 158.591 166.552 158.559 165.947Z" fill="#2F2E41"/>
<path d="M181.265 187.705C183.027 187.705 184.454 186.021 184.454 183.944C184.454 181.867 183.027 180.184 181.265 180.184C179.504 180.184 178.076 181.867 178.076 183.944C178.076 186.021 179.504 187.705 181.265 187.705Z" fill="#FFB9B9"/>
<path d="M32.5325 95.1241L31.5592 112.357L46.174 113.505L47.1473 96.2718L32.5325 95.1241Z" fill="#E6E6E6"/>
<path d="M23.1031 104.274L40.8496 105.668L39.6678 126.594L21.9212 125.2L23.1031 104.274ZM40.0266 106.517L23.8233 105.245L22.7442 124.351L38.9475 125.623L40.0266 106.517Z" fill="#CCCCCC"/>
<path d="M115.123 44.0236L100.803 47.6519L103.88 64.5374L118.2 60.9092L115.123 44.0236Z" fill="#E6E6E6"/>
<path d="M105.072 35.8447L108.808 56.3487L91.4193 60.7543L87.683 40.2504L105.072 35.8447ZM107.89 55.6487L104.478 36.9278L88.6014 40.9503L92.0129 59.6713L107.89 55.6487Z" fill="#CCCCCC"/>
<path d="M100.076 125.114L89.3859 136.921L99.399 149.526L110.089 137.719L100.076 125.114Z" fill="#E6E6E6"/>
<path d="M110.858 123.348L97.8769 137.685L85.7181 122.379L98.6989 108.042L110.858 123.348ZM97.9126 136.396L109.765 123.306L98.6632 109.331L86.8111 122.421L97.9126 136.396Z" fill="#CCCCCC"/>
<path d="M652.903 0H219.534C217.967 -2.09907e-06 216.416 0.363795 214.969 1.07062C213.522 1.77745 212.207 2.81345 211.099 4.1195C209.991 5.42555 209.113 6.97605 208.513 8.68248C207.914 10.3889 207.605 12.2179 207.605 14.0649V298.785C207.605 300.632 207.914 302.461 208.513 304.168C209.113 305.874 209.991 307.425 211.099 308.731C212.207 310.037 213.522 311.073 214.969 311.78C216.416 312.486 217.967 312.85 219.534 312.85H652.903C656.067 312.85 659.101 311.368 661.338 308.731C663.575 306.093 664.831 302.515 664.831 298.785V14.0649C664.831 10.3346 663.575 6.75719 661.338 4.11951C659.101 1.48183 656.067 2.11964e-06 652.903 0Z" fill="#3F3D56"/>
<path d="M648.839 24.8564H223.597V307.707H648.839V24.8564Z" fill="white"/>
<path d="M435.855 17.1424C438.264 17.1424 440.216 14.8399 440.216 11.9997C440.216 9.15941 438.264 6.85693 435.855 6.85693C433.446 6.85693 431.493 9.15941 431.493 11.9997C431.493 14.8399 433.446 17.1424 435.855 17.1424Z" fill="white"/>
<path d="M527.227 307.708H223.597V24.8569L527.227 307.708Z" fill="#F2F2F2"/>
<path d="M290.135 286.542C312.71 286.542 331.011 264.963 331.011 238.344C331.011 211.725 312.71 190.146 290.135 190.146C267.56 190.146 249.26 211.725 249.26 238.344C249.26 264.963 267.56 286.542 290.135 286.542Z" fill="#FF6E30"/>
<path d="M299.234 274.569C289.178 274.569 279.348 271.053 270.986 264.465C262.625 257.877 256.108 248.514 252.259 237.559C248.411 226.604 247.404 214.549 249.366 202.919C251.328 191.289 256.171 180.607 263.281 172.222C270.392 163.837 279.452 158.127 289.315 155.814C299.178 153.501 309.401 154.688 318.692 159.226C327.983 163.764 335.924 171.448 341.511 181.307C347.098 191.166 350.08 202.758 350.08 214.615C350.08 222.489 348.764 230.285 346.209 237.559C343.654 244.833 339.909 251.442 335.187 257.009C330.466 262.576 324.861 266.992 318.692 270.005C312.523 273.018 305.911 274.569 299.234 274.569ZM299.234 155.446C289.31 155.446 279.608 158.916 271.355 165.418C263.103 171.919 256.672 181.16 252.873 191.972C249.075 202.784 248.082 214.681 250.018 226.159C251.954 237.637 256.733 248.18 263.751 256.455C270.769 264.73 279.71 270.365 289.445 272.648C299.179 274.931 309.268 273.76 318.438 269.281C327.607 264.803 335.444 257.219 340.958 247.488C346.472 237.758 349.415 226.318 349.415 214.616C349.415 206.845 348.117 199.151 345.595 191.972C343.073 184.793 339.377 178.271 334.717 172.776C330.058 167.282 324.526 162.923 318.438 159.95C312.349 156.976 305.824 155.446 299.234 155.446L299.234 155.446Z" fill="#3F3D56"/>
<path d="M550.397 171.806H510.675V181.593H550.397V171.806Z" fill="#3F3D56"/>
<path d="M587.978 118.784H473.094V122.979H587.978V118.784Z" fill="#3F3D56"/>
<path d="M587.978 135.263H473.094V139.458H587.978V135.263Z" fill="#3F3D56"/>
<path d="M587.978 151.743H473.094V155.937H587.978V151.743Z" fill="#3F3D56"/>
<path d="M618.753 41.7842H602.153V61.3582H618.753V41.7842Z" fill="#6C63FF"/>
<path d="M626.461 70.4457H606.303V46.6772H626.461V70.4457ZM607.179 69.4124H625.584V47.7107H607.179L607.179 69.4124Z" fill="#CCCCCC"/>
<path d="M676.771 302.565H635.27V299.039C635.27 298.947 635.255 298.856 635.225 298.771C635.195 298.687 635.152 298.61 635.097 298.545C635.042 298.48 634.976 298.428 634.904 298.393C634.832 298.358 634.755 298.34 634.677 298.34H620.448C620.371 298.34 620.294 298.358 620.222 298.393C620.15 298.428 620.084 298.48 620.029 298.545C619.974 298.609 619.93 298.687 619.901 298.771C619.871 298.856 619.856 298.947 619.856 299.039V302.565H610.963V299.039C610.963 298.947 610.947 298.856 610.917 298.771C610.888 298.687 610.844 298.609 610.789 298.545C610.734 298.48 610.669 298.428 610.597 298.393C610.525 298.358 610.448 298.34 610.37 298.34H596.141C596.063 298.34 595.986 298.358 595.914 298.393C595.842 298.428 595.777 298.48 595.722 298.545C595.667 298.61 595.623 298.687 595.593 298.771C595.563 298.856 595.548 298.947 595.548 299.039V302.565H586.655V299.039C586.655 298.947 586.64 298.856 586.61 298.771C586.58 298.687 586.536 298.61 586.481 298.545C586.426 298.48 586.361 298.428 586.289 298.393C586.217 298.358 586.14 298.34 586.062 298.34H571.833C571.755 298.34 571.678 298.358 571.606 298.393C571.534 298.428 571.469 298.48 571.414 298.545C571.359 298.609 571.315 298.687 571.285 298.771C571.256 298.856 571.24 298.947 571.24 299.039V302.565H562.347V299.039C562.347 298.947 562.332 298.856 562.302 298.771C562.272 298.687 562.229 298.609 562.174 298.545C562.119 298.48 562.053 298.428 561.981 298.393C561.909 298.358 561.832 298.34 561.755 298.34H547.526C547.448 298.34 547.371 298.358 547.299 298.393C547.227 298.428 547.161 298.48 547.106 298.545C547.051 298.609 547.008 298.687 546.978 298.771C546.948 298.856 546.933 298.947 546.933 299.039V302.565H538.04V299.039C538.04 298.947 538.024 298.856 537.995 298.771C537.965 298.687 537.921 298.609 537.866 298.545C537.811 298.48 537.746 298.428 537.674 298.393C537.602 298.358 537.525 298.34 537.447 298.34H523.218C523.14 298.34 523.063 298.358 522.991 298.393C522.919 298.428 522.854 298.48 522.799 298.545C522.744 298.61 522.7 298.687 522.67 298.771C522.64 298.856 522.625 298.947 522.625 299.039V302.565H513.732V299.039C513.732 298.947 513.717 298.856 513.687 298.771C513.657 298.687 513.613 298.61 513.558 298.545C513.503 298.48 513.438 298.428 513.366 298.393C513.294 298.358 513.217 298.34 513.139 298.34H498.91C498.833 298.34 498.755 298.358 498.683 298.393C498.612 298.428 498.546 298.48 498.491 298.545C498.436 298.609 498.392 298.687 498.363 298.771C498.333 298.856 498.318 298.947 498.318 299.039V302.565H489.424V299.039C489.424 298.947 489.409 298.856 489.379 298.771C489.35 298.687 489.306 298.609 489.251 298.545C489.196 298.48 489.13 298.428 489.059 298.393C488.987 298.358 488.909 298.34 488.832 298.34H377.372C377.294 298.34 377.217 298.358 377.145 298.393C377.073 298.428 377.008 298.48 376.953 298.545C376.898 298.61 376.854 298.687 376.824 298.771C376.795 298.856 376.779 298.947 376.779 299.039V302.565H367.886V299.039C367.886 298.947 367.871 298.856 367.841 298.771C367.811 298.687 367.768 298.61 367.713 298.545C367.658 298.48 367.592 298.428 367.52 298.393C367.448 298.358 367.371 298.34 367.293 298.34H353.065C352.987 298.34 352.91 298.358 352.838 298.393C352.766 298.428 352.7 298.48 352.645 298.545C352.59 298.609 352.547 298.687 352.517 298.771C352.487 298.856 352.472 298.947 352.472 299.039V302.565H343.579V299.039C343.579 298.947 343.563 298.856 343.534 298.771C343.504 298.687 343.46 298.61 343.405 298.545C343.35 298.48 343.285 298.428 343.213 298.393C343.141 298.358 343.064 298.34 342.986 298.34H328.757C328.679 298.34 328.602 298.358 328.53 298.393C328.458 298.428 328.393 298.48 328.338 298.545C328.283 298.61 328.239 298.687 328.209 298.771C328.179 298.856 328.164 298.947 328.164 299.039V302.565H319.271V299.039C319.271 298.947 319.256 298.856 319.226 298.771C319.196 298.687 319.152 298.61 319.097 298.545C319.042 298.48 318.977 298.428 318.905 298.393C318.833 298.358 318.756 298.34 318.678 298.34H304.449C304.371 298.34 304.294 298.358 304.222 298.393C304.15 298.428 304.085 298.48 304.03 298.545C303.975 298.609 303.931 298.687 303.901 298.771C303.872 298.856 303.856 298.947 303.856 299.039V302.565H294.963V299.039C294.963 298.947 294.948 298.856 294.918 298.771C294.888 298.687 294.845 298.61 294.79 298.545C294.735 298.48 294.669 298.428 294.597 298.393C294.525 298.358 294.448 298.34 294.371 298.34H280.142C280.064 298.34 279.987 298.358 279.915 298.393C279.843 298.428 279.777 298.48 279.722 298.545C279.667 298.609 279.624 298.687 279.594 298.771C279.564 298.856 279.549 298.947 279.549 299.039V302.565H270.656V299.039C270.656 298.947 270.64 298.856 270.611 298.771C270.581 298.687 270.537 298.609 270.482 298.545C270.427 298.48 270.362 298.428 270.29 298.393C270.218 298.358 270.141 298.34 270.063 298.34H255.834C255.677 298.34 255.526 298.413 255.415 298.545C255.304 298.676 255.241 298.853 255.241 299.039V302.565H246.348V299.039C246.348 298.947 246.333 298.856 246.303 298.771C246.273 298.687 246.229 298.61 246.174 298.545C246.119 298.48 246.054 298.428 245.982 298.393C245.91 298.358 245.833 298.34 245.755 298.34H231.526C231.369 298.34 231.218 298.414 231.107 298.545C230.996 298.676 230.933 298.854 230.933 299.039V302.565H203.661C199.888 302.565 196.269 304.332 193.6 307.479C190.932 310.625 189.433 314.893 189.433 319.342V326.929C189.433 331.379 190.932 335.646 193.6 338.793C196.269 341.939 199.888 343.707 203.661 343.707H676.771C680.545 343.707 684.164 341.939 686.832 338.793C689.501 335.646 691 331.379 691 326.929V319.342C691 317.139 690.632 314.957 689.917 312.922C689.202 310.886 688.154 309.037 686.832 307.479C685.511 305.921 683.943 304.685 682.216 303.842C680.49 302.999 678.64 302.565 676.771 302.565Z" fill="#3F3D56"/>
</g>
<defs>
<clipPath id="clip0">
<rect width="691" height="349" fill="white"/>
</clipPath>
</defs>
</svg>
